# xmcd CD database file
#
# Track frame offsets:
#	175
#	13312
#	30495
#	48225
#	66977
#	76755
#	91242
#	101512
#	114060
#	125765
#
# Disc length: 1935 seconds
#
# Revision: 2
# Processed by: cddbd v1.4PL0 Copyright (c) Steve Scherf et al.
# Submitted via: CDex 1.50Beta7
#
DISCID=74078d0a
DTITLE=Lightnin' Hopkins - Lightnin' Hopkins
DYEAR=1959
DGENRE=Blues
TTITLE0=Penitentiary Blues
TTITLE1=Bad Luck and Trouble
TTITLE2=Come Go Home with Me
TTITLE3=Trouble Stay 'Way from My Door
TTITLE4=See That My Grave is Kept Clean
TTITLE5=Goin' Back to Florida
TTITLE6=Reminiscenses of Blind Lemon
TTITLE7=Fan It
TTITLE8=Tell Me, Baby
TTITLE9=She's Mine
EXTD=YEAR: 1959
EXTT0=Lightnin' Hopkins
EXTT1=Lightnin' Hopkins
EXTT2=Lightnin' Hopkins
EXTT3=Lightnin' Hopkins
EXTT4=Lightnin' Hopkins
EXTT5=Lightnin' Hopkins
EXTT6=Lightnin' Hopkins
EXTT7=Lightnin' Hopkins
EXTT8=Lightnin' Hopkins
EXTT9=Lightnin' Hopkins
PLAYORDER=
